0
SECTION
2
HEADER
9
$INSUNITS
70
4
9
$ACADVER
1
AC1014
9
$HANDSEED
5
FFFF
0
ENDSEC
0
SECTION
2
TABLES
0
TABLE
2
VPORT
5
8
100
AcDbSymbolTable
0
ENDTAB
0
TABLE
2
LTYPE
5
5
100
AcDbSymbolTable
0
LTYPE
5
14
100
AcDbSymbolTableRecord
100
AcDbLinetypeTableRecord
2
BYBLOCK
70
0
0
LTYPE
5
15
100
AcDbSymbolTableRecord
100
AcDbLinetypeTableRecord
2
BYLAYER
70
0
0
LTYPE
5
16
100
AcDbSymbolTableRecord
100
AcDbLinetypeTableRecord
2
DASHED
70
0
3
Dashed __ __ __ __ __ __ __ __ __ __ __ __ __ _
72
65
73
2
40
0.75
49
0.5
74
0
49
-0.25
74
0
0
ENDTAB
0
TABLE
2
LAYER
5
2
100
AcDbSymbolTable
70
2
0
LAYER
5
50
100
AcDbSymbolTableRecord
100
AcDbLayerTableRecord
2
0
70
0
62
7
6
CONTINUOUS
0
ENDTAB
0
TABLE
2
STYLE
5
3
100
AcDbSymbolTable
70
1
0
STYLE
5
11
100
AcDbSymbolTableRecord
100
AcDbTextStyleTableRecord
2
STANDARD
70
0
0
ENDTAB
0
TABLE
2
VIEW
5
6
100
AcDbSymbolTable
70
0
0
ENDTAB
0
TABLE
2
UCS
5
7
100
AcDbSymbolTable
70
0
0
ENDTAB
0
TABLE
2
APPID
5
9
100
AcDbSymbolTable
70
2
0
APPID
5
12
100
AcDbSymbolTableRecord
100
AcDbRegAppTableRecord
2
ACAD
70
0
0
ENDTAB
0
TABLE
2
DIMSTYLE
5
A
100
AcDbSymbolTable
70
1
0
ENDTAB
0
TABLE
2
BLOCK_RECORD
5
1
100
AcDbSymbolTable
70
1
0
BLOCK_RECORD
5
1F
100
AcDbSymbolTableRecord
100
AcDbBlockTableRecord
2
*MODEL_SPACE
0
BLOCK_RECORD
5
1B
100
AcDbSymbolTableRecord
100
AcDbBlockTableRecord
2
*PAPER_SPACE
0
ENDTAB
0
ENDSEC
0
SECTION
2
BLOCKS
0
BLOCK
5
20
100
AcDbEntity
100
AcDbBlockBegin
2
*MODEL_SPACE
0
ENDBLK
5
21
100
AcDbEntity
100
AcDbBlockEnd
0
BLOCK
5
1C
100
AcDbEntity
100
AcDbBlockBegin
2
*PAPER_SPACE
0
ENDBLK
5
1D
100
AcDbEntity
100
AcDbBlockEnd
0
ENDSEC
0
SECTION
2
ENTITIES
0
LWPOLYLINE
5
100
100
AcDbEntity
8
0
100
AcDbPolyline
90
8
70
1
43
0.0
10
-232.00000000007745
20
245.00000000043616
10
232.00000000005832
20
245.00000000043616
42
-0.41421356237308815
10
235.00000000005781
20
242.00000000043661
10
235.00000000005781
20
-241.99999999963279
42
-0.41421356237309853
10
232.00000000005761
20
-244.99999999963302
10
-232.00000000012392
20
-244.9999999996331
42
-0.41421356237308815
10
-235.00000000012346
20
-241.99999999963322
10
-235.00000000012329
20
242.00000000039029
42
-0.41421356237311935
0
LWPOLYLINE
5
101
100
AcDbEntity
8
0
100
AcDbPolyline
90
8
70
1
43
0.0
10
252.00000000000017
20
264.99999999999875
10
-252.00000000019116
20
264.99999999999886
42
0.41421356237310197
10
-254.99999999999818
20
262.00000000019179
10
-254.99999999999812
20
-261.99999999998556
42
0.4142135623730846
10
-251.99999999998244
20
-265.00000000000119
10
251.99999999981347
20
-265.00000000000108
42
0.41421356237309159
10
255.00000000000196
20
-261.9999999998127
10
255.00000000000199
20
261.9999999999971
42
0.41421356237308815
0
CIRCLE
5
102
100
AcDbEntity
8
0
100
AcDbCircle
10
-2.6689055500013252e-12
20
254.99999999999852
30
-2.8310687127941492e-14
40
3.0000000000000004
210
0
220
-0
230
1
0
CIRCLE
5
103
100
AcDbEntity
8
0
100
AcDbCircle
10
-244.99999999999804
20
254.99999999999824
30
-2.8310687127941492e-14
40
3.0000000000000071
210
0
220
-0
230
1
0
CIRCLE
5
104
100
AcDbEntity
8
0
100
AcDbCircle
10
-244.99999999999673
20
127.49999999999815
30
-2.8310687127941492e-14
40
3.0000000000000071
210
0
220
-0
230
1
0
CIRCLE
5
105
100
AcDbEntity
8
0
100
AcDbCircle
10
-122.50000000000043
20
254.99999999999832
30
-2.8310687127941492e-14
40
3.0000000000000071
210
0
220
-0
230
1
0
CIRCLE
5
106
100
AcDbEntity
8
0
100
AcDbCircle
10
-244.9999999999954
20
-1.8729498160399363e-12
30
-2.8310687127941492e-14
40
3.0000000000000071
210
0
220
-0
230
1
0
CIRCLE
5
107
100
AcDbEntity
8
0
100
AcDbCircle
10
122.49999999980992
20
255.00000000000344
30
-2.8310687127941492e-14
40
3.0000000000000071
210
0
220
-0
230
1
0
CIRCLE
5
108
100
AcDbEntity
8
0
100
AcDbCircle
10
244.99999999980756
20
255.00000000000836
30
-2.8310687127941492e-14
40
3.0000000000000071
210
0
220
-0
230
1
0
CIRCLE
5
109
100
AcDbEntity
8
0
100
AcDbCircle
10
244.99999999981142
20
127.50000000000831
30
-2.8310687127941492e-14
40
3.0000000000000071
210
0
220
-0
230
1
0
CIRCLE
5
110
100
AcDbEntity
8
0
100
AcDbCircle
10
244.99999999981543
20
8.2753138239139486e-12
30
-2.8310687127941492e-14
40
3.0000000000000071
210
0
220
-0
230
1
0
CIRCLE
5
111
100
AcDbEntity
8
0
100
AcDbCircle
10
122.49999999982563
20
-254.99999999999258
30
-2.8310687127941492e-14
40
3.0000000000000071
210
0
220
-0
230
1
0
CIRCLE
5
112
100
AcDbEntity
8
0
100
AcDbCircle
10
244.99999999982339
20
-254.99999999999187
30
-2.8310687127941492e-14
40
3.0000000000000071
210
0
220
-0
230
1
0
CIRCLE
5
113
100
AcDbEntity
8
0
100
AcDbCircle
10
244.99999999981947
20
-127.49999999999177
30
-2.8310687127941492e-14
40
3.0000000000000071
210
0
220
-0
230
1
0
CIRCLE
5
114
100
AcDbEntity
8
0
100
AcDbCircle
10
2.8211083345884665e-12
20
-254.99999999999341
30
-2.8310687127941492e-14
40
3.0000000000000004
210
0
220
-0
230
1
0
CIRCLE
5
115
100
AcDbEntity
8
0
100
AcDbCircle
10
-244.99999999999406
20
-127.50000000000196
30
-2.8310687127941492e-14
40
3.0000000000000071
210
0
220
-0
230
1
0
CIRCLE
5
116
100
AcDbEntity
8
0
100
AcDbCircle
10
-244.99999999999272
20
-255.00000000000202
30
-2.8310687127941492e-14
40
3.0000000000000071
210
0
220
-0
230
1
0
CIRCLE
5
117
100
AcDbEntity
8
0
100
AcDbCircle
10
-122.49999999999496
20
-254.99999999999767
30
-2.8310687127941492e-14
40
3.0000000000000071
210
0
220
-0
230
1
0
ENDSEC
0
SECTION
2
OBJECTS
0
DICTIONARY
5
C
100
AcDbDictionary
3
ACAD_GROUP
350
D
3
ACAD_MLINESTYLE
350
17
0
DICTIONARY
5
D
100
AcDbDictionary
0
DICTIONARY
5
1A
330
C
100
AcDbDictionary
0
DICTIONARY
5
17
100
AcDbDictionary
0
ENDSEC
0
EOF
