0
SECTION
2
HEADER
9
$INSUNITS
70
4
9
$ACADVER
1
AC1014
9
$HANDSEED
5
FFFF
0
ENDSEC
0
SECTION
2
TABLES
0
TABLE
2
VPORT
5
8
100
AcDbSymbolTable
0
ENDTAB
0
TABLE
2
LTYPE
5
5
100
AcDbSymbolTable
0
LTYPE
5
14
100
AcDbSymbolTableRecord
100
AcDbLinetypeTableRecord
2
BYBLOCK
70
0
0
LTYPE
5
15
100
AcDbSymbolTableRecord
100
AcDbLinetypeTableRecord
2
BYLAYER
70
0
0
LTYPE
5
16
100
AcDbSymbolTableRecord
100
AcDbLinetypeTableRecord
2
DASHED
70
0
3
Dashed __ __ __ __ __ __ __ __ __ __ __ __ __ _
72
65
73
2
40
0.75
49
0.5
74
0
49
-0.25
74
0
0
ENDTAB
0
TABLE
2
LAYER
5
2
100
AcDbSymbolTable
70
2
0
LAYER
5
50
100
AcDbSymbolTableRecord
100
AcDbLayerTableRecord
2
0
70
0
62
7
6
CONTINUOUS
0
ENDTAB
0
TABLE
2
STYLE
5
3
100
AcDbSymbolTable
70
1
0
STYLE
5
11
100
AcDbSymbolTableRecord
100
AcDbTextStyleTableRecord
2
STANDARD
70
0
0
ENDTAB
0
TABLE
2
VIEW
5
6
100
AcDbSymbolTable
70
0
0
ENDTAB
0
TABLE
2
UCS
5
7
100
AcDbSymbolTable
70
0
0
ENDTAB
0
TABLE
2
APPID
5
9
100
AcDbSymbolTable
70
2
0
APPID
5
12
100
AcDbSymbolTableRecord
100
AcDbRegAppTableRecord
2
ACAD
70
0
0
ENDTAB
0
TABLE
2
DIMSTYLE
5
A
100
AcDbSymbolTable
70
1
0
ENDTAB
0
TABLE
2
BLOCK_RECORD
5
1
100
AcDbSymbolTable
70
1
0
BLOCK_RECORD
5
1F
100
AcDbSymbolTableRecord
100
AcDbBlockTableRecord
2
*MODEL_SPACE
0
BLOCK_RECORD
5
1B
100
AcDbSymbolTableRecord
100
AcDbBlockTableRecord
2
*PAPER_SPACE
0
ENDTAB
0
ENDSEC
0
SECTION
2
BLOCKS
0
BLOCK
5
20
100
AcDbEntity
100
AcDbBlockBegin
2
*MODEL_SPACE
0
ENDBLK
5
21
100
AcDbEntity
100
AcDbBlockEnd
0
BLOCK
5
1C
100
AcDbEntity
100
AcDbBlockBegin
2
*PAPER_SPACE
0
ENDBLK
5
1D
100
AcDbEntity
100
AcDbBlockEnd
0
ENDSEC
0
SECTION
2
ENTITIES
0
LWPOLYLINE
5
100
100
AcDbEntity
8
0
100
AcDbPolyline
90
8
70
1
43
0.0
10
182.00000000000006
20
-229.99999999999994
10
-182
20
-229.99999999999997
42
-0.41421356237309503
10
-185.00000000000003
20
-226.99999999999991
10
-185.00000000000003
20
97
42
-0.41421356237309159
10
-182.00000000000003
20
99.999999999999972
10
182.00000000000003
20
99.999999999999986
42
-0.41421356237309853
10
185.00000000000006
20
96.999999999999972
10
185.00000000000011
20
-226.99999999999989
42
-0.41421356237309503
0
LWPOLYLINE
5
101
100
AcDbEntity
8
0
100
AcDbPolyline
90
8
70
1
43
0.0
10
-202
20
-249.99999999999997
10
202.00000000000006
20
-249.99999999999994
42
0.41421356237308815
10
205.00000000000011
20
-246.99999999999994
10
205
20
246.99999999999994
42
0.41421356237309159
10
202
20
250
10
-202
20
249.99999999999997
42
0.41421356237308815
10
-205
20
246.99999999999994
10
-205.00000000000003
20
-246.99999999999994
42
0.41421356237309159
0
LWPOLYLINE
5
102
100
AcDbEntity
8
0
100
AcDbPolyline
90
8
70
1
43
0.0
10
-182.00000000000006
20
229.99999999999997
10
182.00000000000006
20
230
42
-0.41421356237307422
10
185
20
227
10
185.00000000000003
20
122.99999999999999
42
-0.41421356237309503
10
182.00000000000003
20
119.99999999999999
10
-182.00000000000003
20
119.99999999999997
42
-0.41421356237309159
10
-185
20
122.99999999999997
10
-185
20
226.99999999999994
42
-0.41421356237307422
0
CIRCLE
5
103
100
AcDbEntity
8
0
100
AcDbCircle
10
6.9633188104489823e-14
20
-239.99999999999997
30
-1.6653345369377348e-15
40
2.9999999999999973
210
2.1405335349231171e-100
220
1.0609869665502922e-37
230
1
0
CIRCLE
5
104
100
AcDbEntity
8
0
100
AcDbCircle
10
1.4210854715201977e-15
20
239.99999999999997
30
-1.6653345369377348e-15
40
2.9999999999999973
210
2.1405335349231171e-100
220
1.0609869665502922e-37
230
1
0
CIRCLE
5
105
100
AcDbEntity
8
0
100
AcDbCircle
10
195
20
240
30
-1.6653345369377348e-15
40
3.0000000000000071
210
2.1405335349231171e-100
220
1.0609869665502922e-37
230
1
0
CIRCLE
5
106
100
AcDbEntity
8
0
100
AcDbCircle
10
195.00000000000003
20
120.00000000000001
30
-1.6653345369377348e-15
40
3.0000000000000071
210
2.1405335349231171e-100
220
1.0609869665502922e-37
230
1
0
CIRCLE
5
107
100
AcDbEntity
8
0
100
AcDbCircle
10
97.5
20
239.99999999999997
30
-1.6653345369377348e-15
40
2.9999999999999893
210
2.1405335349231171e-100
220
1.0609869665502922e-37
230
1
0
CIRCLE
5
108
100
AcDbEntity
8
0
100
AcDbCircle
10
195.00000000000003
20
2.7711166694648835e-14
30
-1.6653345369377348e-15
40
3.0000000000000071
210
2.1405335349231171e-100
220
1.0609869665502922e-37
230
1
0
CIRCLE
5
109
100
AcDbEntity
8
0
100
AcDbCircle
10
97.500000000000014
20
109.99999999999999
30
-1.6653345369377348e-15
40
2.9999999999999893
210
2.1405335349231171e-100
220
1.0609869665502922e-37
230
1
0
CIRCLE
5
110
100
AcDbEntity
8
0
100
AcDbCircle
10
195.00000000000003
20
-119.99999999999994
30
-1.6653345369377348e-15
40
3.0000000000000071
210
2.1405335349231171e-100
220
1.0609869665502922e-37
230
1
0
CIRCLE
5
111
100
AcDbEntity
8
0
100
AcDbCircle
10
195.00000000000006
20
-239.99999999999994
30
-1.6653345369377348e-15
40
3.0000000000000071
210
2.1405335349231171e-100
220
1.0609869665502922e-37
230
1
0
CIRCLE
5
112
100
AcDbEntity
8
0
100
AcDbCircle
10
97.500000000000071
20
-239.99999999999997
30
-1.6653345369377348e-15
40
2.9999999999999893
210
2.1405335349231171e-100
220
1.0609869665502922e-37
230
1
0
CIRCLE
5
113
100
AcDbEntity
8
0
100
AcDbCircle
10
1.9895196601282807e-14
20
109.99999999999997
30
-1.6653345369377348e-15
40
2.9999999999999973
210
2.1405335349231171e-100
220
1.0609869665502922e-37
230
1
0
CIRCLE
5
114
100
AcDbEntity
8
0
100
AcDbCircle
10
-97.5
20
-239.99999999999997
30
-1.6653345369377348e-15
40
2.9999999999999893
210
2.1405335349231171e-100
220
1.0609869665502922e-37
230
1
0
CIRCLE
5
115
100
AcDbEntity
8
0
100
AcDbCircle
10
-195
20
-239.99999999999997
30
-1.6653345369377348e-15
40
3.0000000000000071
210
2.1405335349231171e-100
220
1.0609869665502922e-37
230
1
0
CIRCLE
5
116
100
AcDbEntity
8
0
100
AcDbCircle
10
-195
20
-119.99999999999999
30
-1.6653345369377348e-15
40
3.0000000000000071
210
2.1405335349231171e-100
220
1.0609869665502922e-37
230
1
0
CIRCLE
5
117
100
AcDbEntity
8
0
100
AcDbCircle
10
-97.5
20
109.99999999999997
30
-1.6653345369377348e-15
40
2.9999999999999893
210
2.1405335349231171e-100
220
1.0609869665502922e-37
230
1
0
CIRCLE
5
118
100
AcDbEntity
8
0
100
AcDbCircle
10
-195
20
-4.9224920485791137e-27
30
-1.6653345369377348e-15
40
3.0000000000000071
210
2.1405335349231171e-100
220
1.0609869665502922e-37
230
1
0
CIRCLE
5
119
100
AcDbEntity
8
0
100
AcDbCircle
10
-97.5
20
239.99999999999997
30
-1.6653345369377348e-15
40
2.9999999999999893
210
2.1405335349231171e-100
220
1.0609869665502922e-37
230
1
0
CIRCLE
5
120
100
AcDbEntity
8
0
100
AcDbCircle
10
-195
20
119.99999999999999
30
-1.6653345369377348e-15
40
3.0000000000000071
210
2.1405335349231171e-100
220
1.0609869665502922e-37
230
1
0
CIRCLE
5
121
100
AcDbEntity
8
0
100
AcDbCircle
10
-195
20
239.99999999999997
30
-1.6653345369377348e-15
40
3.0000000000000071
210
2.1405335349231171e-100
220
1.0609869665502922e-37
230
1
0
ENDSEC
0
SECTION
2
OBJECTS
0
DICTIONARY
5
C
100
AcDbDictionary
3
ACAD_GROUP
350
D
3
ACAD_MLINESTYLE
350
17
0
DICTIONARY
5
D
100
AcDbDictionary
0
DICTIONARY
5
1A
330
C
100
AcDbDictionary
0
DICTIONARY
5
17
100
AcDbDictionary
0
ENDSEC
0
EOF
