0
SECTION
2
HEADER
9
$INSUNITS
70
4
9
$ACADVER
1
AC1014
9
$HANDSEED
5
FFFF
0
ENDSEC
0
SECTION
2
TABLES
0
TABLE
2
VPORT
5
8
100
AcDbSymbolTable
0
ENDTAB
0
TABLE
2
LTYPE
5
5
100
AcDbSymbolTable
0
LTYPE
5
14
100
AcDbSymbolTableRecord
100
AcDbLinetypeTableRecord
2
BYBLOCK
70
0
0
LTYPE
5
15
100
AcDbSymbolTableRecord
100
AcDbLinetypeTableRecord
2
BYLAYER
70
0
0
LTYPE
5
16
100
AcDbSymbolTableRecord
100
AcDbLinetypeTableRecord
2
DASHED
70
0
3
Dashed __ __ __ __ __ __ __ __ __ __ __ __ __ _
72
65
73
2
40
0.75
49
0.5
74
0
49
-0.25
74
0
0
ENDTAB
0
TABLE
2
LAYER
5
2
100
AcDbSymbolTable
70
2
0
LAYER
5
50
100
AcDbSymbolTableRecord
100
AcDbLayerTableRecord
2
0
70
0
62
7
6
CONTINUOUS
0
ENDTAB
0
TABLE
2
STYLE
5
3
100
AcDbSymbolTable
70
1
0
STYLE
5
11
100
AcDbSymbolTableRecord
100
AcDbTextStyleTableRecord
2
STANDARD
70
0
0
ENDTAB
0
TABLE
2
VIEW
5
6
100
AcDbSymbolTable
70
0
0
ENDTAB
0
TABLE
2
UCS
5
7
100
AcDbSymbolTable
70
0
0
ENDTAB
0
TABLE
2
APPID
5
9
100
AcDbSymbolTable
70
2
0
APPID
5
12
100
AcDbSymbolTableRecord
100
AcDbRegAppTableRecord
2
ACAD
70
0
0
ENDTAB
0
TABLE
2
DIMSTYLE
5
A
100
AcDbSymbolTable
70
1
0
ENDTAB
0
TABLE
2
BLOCK_RECORD
5
1
100
AcDbSymbolTable
70
1
0
BLOCK_RECORD
5
1F
100
AcDbSymbolTableRecord
100
AcDbBlockTableRecord
2
*MODEL_SPACE
0
BLOCK_RECORD
5
1B
100
AcDbSymbolTableRecord
100
AcDbBlockTableRecord
2
*PAPER_SPACE
0
ENDTAB
0
ENDSEC
0
SECTION
2
BLOCKS
0
BLOCK
5
20
100
AcDbEntity
100
AcDbBlockBegin
2
*MODEL_SPACE
0
ENDBLK
5
21
100
AcDbEntity
100
AcDbBlockEnd
0
BLOCK
5
1C
100
AcDbEntity
100
AcDbBlockBegin
2
*PAPER_SPACE
0
ENDBLK
5
1D
100
AcDbEntity
100
AcDbBlockEnd
0
ENDSEC
0
SECTION
2
ENTITIES
0
LWPOLYLINE
5
100
100
AcDbEntity
8
0
100
AcDbPolyline
90
8
70
1
43
0.0
10
-207.00000000011028
20
125.00000000043237
10
206.99999999998812
20
125.00000000043238
42
-0.41421356237310375
10
209.99999999998812
20
122.00000000043229
10
209.99999999998974
20
-251.99999999963143
42
-0.41421356237302914
10
206.99999999998948
20
-254.99999999963131
10
-207.0000000001404
20
-254.99999999964166
42
-0.41421356237300488
10
-210.00000000013966
20
-251.99999999964183
10
-210.00000000011022
20
122.00000000043261
42
-0.41421356237306384
0
LWPOLYLINE
5
101
100
AcDbEntity
8
0
100
AcDbPolyline
90
8
70
1
43
0.0
10
206.99999999998911
20
145.00000000043235
10
-207.00000000013216
20
145.00000000043238
42
-0.41421356237309853
10
-210.00000000013216
20
148.00000000043244
10
-210.00000000014063
20
252.00000000032745
42
-0.41421356238228674
10
-206.99999999999545
20
255.00000000036752
10
206.99999999992184
20
255.00000000029371
42
-0.4142135623796992
10
209.99999999998906
20
252.00000000029411
10
209.99999999998914
20
148.00000000043229
42
-0.41421356237309337
0
LWPOLYLINE
5
102
100
AcDbEntity
8
0
100
AcDbPolyline
90
8
70
1
43
0.0
10
226.9999999999894
20
274.99999999999363
10
-227.00000000020265
20
274.99999999999352
42
0.41421356237307771
10
-230.00000000000892
20
272.00000000018713
10
-230.00000000000892
20
-272.00000000000495
42
0.41421356237306034
10
-227.00000000000929
20
-275.00000000000489
10
226.99999999979607
20
-275.00000000000648
42
0.41421356237307422
10
229.99999999999085
20
-271.99999999981145
10
229.99999999999105
20
271.99999999999193
42
0.41421356237312978
0
CIRCLE
5
103
100
AcDbEntity
8
0
100
AcDbCircle
10
-1.0647700493026747e-10
20
135.00000000035672
30
7.2164496600635175e-15
40
3.0000000000000004
210
0
220
0
230
1
0
CIRCLE
5
104
100
AcDbEntity
8
0
100
AcDbCircle
10
-6.7193339977539945e-11
20
264.99999999999346
30
7.2164496600635175e-15
40
3.0000000000000004
210
0
220
0
230
1
0
CIRCLE
5
105
100
AcDbEntity
8
0
100
AcDbCircle
10
-110.00000000005967
20
135.00000000035743
30
7.2164496600635175e-15
40
3.0000000000000071
210
0
220
0
230
1
0
CIRCLE
5
106
100
AcDbEntity
8
0
100
AcDbCircle
10
-220.00000000012537
20
265.00000000007458
30
7.2164496600635175e-15
40
3.0000000000000071
210
0
220
0
230
1
0
CIRCLE
5
107
100
AcDbEntity
8
0
100
AcDbCircle
10
-220.00000000004184
20
132.49999999997584
30
7.2164496600635175e-15
40
3.0000000000000071
210
0
220
0
230
1
0
CIRCLE
5
108
100
AcDbEntity
8
0
100
AcDbCircle
10
-110.00000000005967
20
265.00000000001671
30
7.2164496600635175e-15
40
3.0000000000000071
210
0
220
0
230
1
0
CIRCLE
5
109
100
AcDbEntity
8
0
100
AcDbCircle
10
-6.4992460774323589e-11
20
-265.00000000000648
30
7.2164496600635175e-15
40
3.0000000000000004
210
0
220
0
230
1
0
CIRCLE
5
110
100
AcDbEntity
8
0
100
AcDbCircle
10
-110.00000000009331
20
-265.00000000000682
30
7.2164496600635175e-15
40
3.0000000000000071
210
0
220
0
230
1
0
CIRCLE
5
111
100
AcDbEntity
8
0
100
AcDbCircle
10
-220.00000000012133
20
-265.00000000000637
30
7.2164496600635175e-15
40
3.0000000000000071
210
0
220
0
230
1
0
CIRCLE
5
112
100
AcDbEntity
8
0
100
AcDbCircle
10
-220.00000000010425
20
-132.50000000001285
30
7.2164496600635175e-15
40
3.0000000000000071
210
0
220
0
230
1
0
CIRCLE
5
113
100
AcDbEntity
8
0
100
AcDbCircle
10
-220.00000000004616
20
3.0457071881483443e-11
30
7.2164496600635175e-15
40
3.0000000000000071
210
0
220
0
230
1
0
CIRCLE
5
114
100
AcDbEntity
8
0
100
AcDbCircle
10
109.99999999984651
20
265.00000000001666
30
7.2164496600635175e-15
40
3.0000000000000071
210
0
220
0
230
1
0
CIRCLE
5
115
100
AcDbEntity
8
0
100
AcDbCircle
10
219.99999999991221
20
265.00000000007452
30
7.2164496600635175e-15
40
3.0000000000000071
210
0
220
0
230
1
0
CIRCLE
5
116
100
AcDbEntity
8
0
100
AcDbCircle
10
219.99999999982867
20
132.49999999997578
30
7.2164496600635175e-15
40
3.0000000000000071
210
0
220
0
230
1
0
CIRCLE
5
117
100
AcDbEntity
8
0
100
AcDbCircle
10
109.99999999984647
20
135.00000000035743
30
7.2164496600635175e-15
40
3.0000000000000071
210
0
220
0
230
1
0
CIRCLE
5
118
100
AcDbEntity
8
0
100
AcDbCircle
10
219.99999999983291
20
3.0411229090532288e-11
30
7.2164496600635175e-15
40
3.0000000000000071
210
0
220
0
230
1
0
CIRCLE
5
119
100
AcDbEntity
8
0
100
AcDbCircle
10
219.999999999891
20
-132.5000000000129
30
7.2164496600635175e-15
40
3.0000000000000071
210
0
220
0
230
1
0
CIRCLE
5
120
100
AcDbEntity
8
0
100
AcDbCircle
10
219.99999999990803
20
-265.00000000000642
30
7.2164496600635175e-15
40
3.0000000000000071
210
0
220
0
230
1
0
CIRCLE
5
121
100
AcDbEntity
8
0
100
AcDbCircle
10
109.99999999988
20
-265.00000000000688
30
7.2164496600635175e-15
40
3.0000000000000071
210
0
220
0
230
1
0
ENDSEC
0
SECTION
2
OBJECTS
0
DICTIONARY
5
C
100
AcDbDictionary
3
ACAD_GROUP
350
D
3
ACAD_MLINESTYLE
350
17
0
DICTIONARY
5
D
100
AcDbDictionary
0
DICTIONARY
5
1A
330
C
100
AcDbDictionary
0
DICTIONARY
5
17
100
AcDbDictionary
0
ENDSEC
0
EOF
