0
SECTION
2
HEADER
9
$INSUNITS
70
4
9
$ACADVER
1
AC1014
9
$HANDSEED
5
FFFF
0
ENDSEC
0
SECTION
2
TABLES
0
TABLE
2
VPORT
5
8
100
AcDbSymbolTable
0
ENDTAB
0
TABLE
2
LTYPE
5
5
100
AcDbSymbolTable
0
LTYPE
5
14
100
AcDbSymbolTableRecord
100
AcDbLinetypeTableRecord
2
BYBLOCK
70
0
0
LTYPE
5
15
100
AcDbSymbolTableRecord
100
AcDbLinetypeTableRecord
2
BYLAYER
70
0
0
LTYPE
5
16
100
AcDbSymbolTableRecord
100
AcDbLinetypeTableRecord
2
DASHED
70
0
3
Dashed __ __ __ __ __ __ __ __ __ __ __ __ __ _
72
65
73
2
40
0.75
49
0.5
74
0
49
-0.25
74
0
0
ENDTAB
0
TABLE
2
LAYER
5
2
100
AcDbSymbolTable
70
2
0
LAYER
5
50
100
AcDbSymbolTableRecord
100
AcDbLayerTableRecord
2
0
70
0
62
7
6
CONTINUOUS
0
ENDTAB
0
TABLE
2
STYLE
5
3
100
AcDbSymbolTable
70
1
0
STYLE
5
11
100
AcDbSymbolTableRecord
100
AcDbTextStyleTableRecord
2
STANDARD
70
0
0
ENDTAB
0
TABLE
2
VIEW
5
6
100
AcDbSymbolTable
70
0
0
ENDTAB
0
TABLE
2
UCS
5
7
100
AcDbSymbolTable
70
0
0
ENDTAB
0
TABLE
2
APPID
5
9
100
AcDbSymbolTable
70
2
0
APPID
5
12
100
AcDbSymbolTableRecord
100
AcDbRegAppTableRecord
2
ACAD
70
0
0
ENDTAB
0
TABLE
2
DIMSTYLE
5
A
100
AcDbSymbolTable
70
1
0
ENDTAB
0
TABLE
2
BLOCK_RECORD
5
1
100
AcDbSymbolTable
70
1
0
BLOCK_RECORD
5
1F
100
AcDbSymbolTableRecord
100
AcDbBlockTableRecord
2
*MODEL_SPACE
0
BLOCK_RECORD
5
1B
100
AcDbSymbolTableRecord
100
AcDbBlockTableRecord
2
*PAPER_SPACE
0
ENDTAB
0
ENDSEC
0
SECTION
2
BLOCKS
0
BLOCK
5
20
100
AcDbEntity
100
AcDbBlockBegin
2
*MODEL_SPACE
0
ENDBLK
5
21
100
AcDbEntity
100
AcDbBlockEnd
0
BLOCK
5
1C
100
AcDbEntity
100
AcDbBlockBegin
2
*PAPER_SPACE
0
ENDBLK
5
1D
100
AcDbEntity
100
AcDbBlockEnd
0
ENDSEC
0
SECTION
2
ENTITIES
0
LWPOLYLINE
5
100
100
AcDbEntity
8
0
100
AcDbPolyline
90
8
70
1
43
0.0
10
-252.00000000000011
20
-249.99999999999994
10
251.99999999980491
20
-249.99999999999994
42
0.41421356237309853
10
254.99999999999989
20
-246.99999999980497
10
254.99999999999989
20
246.99999999999841
42
0.41421356237309503
10
251.99999999999835
20
249.99999999999994
10
-252.00000000019355
20
249.99999999999994
42
0.41421356237310197
10
-255
20
247.00000000019347
10
-254.99999999999997
20
-247.00000000000003
42
0.41421356237309159
0
LWPOLYLINE
5
101
100
AcDbEntity
8
0
100
AcDbPolyline
90
8
70
1
43
0.0
10
234.99999999999665
20
97.000000000414829
10
234.99999999999798
20
-226.99999999962483
42
-0.41421356237310197
10
231.99999999999758
20
-229.99999999962523
10
-232.00000000012321
20
-229.99999999962523
42
-0.41421356237309159
10
-235.00000000012292
20
-226.99999999962546
10
-235.00000000012517
20
97.000000000414971
42
-0.41421356237307422
10
-232.00000000012517
20
100.00000000041476
10
231.99999999999676
20
100.0000000004148
42
-0.41421356237308116
0
LWPOLYLINE
5
102
100
AcDbEntity
8
0
100
AcDbPolyline
90
8
70
1
43
0.0
10
-232.00000000007736
20
230.00000000037292
10
231.99999999999844
20
230.00000000037289
42
-0.41421356237309503
10
234.99999999999795
20
227.00000000037338
10
234.99999999999801
20
123.00000000041467
42
-0.41421356237309503
10
231.99999999999804
20
120.0000000004147
10
-232.00000000012272
20
120.00000000041469
42
-0.41421356237309159
10
-235.00000000012292
20
123.00000000041491
10
-235.00000000012284
20
227.00000000032747
42
-0.41421356237309159
0
CIRCLE
5
103
100
AcDbEntity
8
0
100
AcDbCircle
10
1.8163439766671048e-12
20
-239.99999999999997
30
-2.8310687127941492e-14
40
3.0000000000000004
210
0
220
-0
230
1
0
CIRCLE
5
104
100
AcDbEntity
8
0
100
AcDbCircle
10
244.99999999980287
20
2.6438700155868334e-14
30
-2.8310687127941492e-14
40
3.0000000000000071
210
0
220
-0
230
1
0
CIRCLE
5
105
100
AcDbEntity
8
0
100
AcDbCircle
10
122.49999999980211
20
-239.99999999999997
30
-2.8310687127941492e-14
40
3.0000000000000071
210
0
220
-0
230
1
0
CIRCLE
5
106
100
AcDbEntity
8
0
100
AcDbCircle
10
244.99999999980116
20
-239.99999999999994
30
-2.8310687127941492e-14
40
3.0000000000000071
210
0
220
-0
230
1
0
CIRCLE
5
107
100
AcDbEntity
8
0
100
AcDbCircle
10
244.99999999980193
20
-119.99999999999993
30
-2.8310687127941492e-14
40
3.0000000000000071
210
0
220
-0
230
1
0
CIRCLE
5
108
100
AcDbEntity
8
0
100
AcDbCircle
10
-122.49999999999721
20
-240
30
-2.8310687127941492e-14
40
3.0000000000000071
210
0
220
-0
230
1
0
CIRCLE
5
109
100
AcDbEntity
8
0
100
AcDbCircle
10
-244.99999999999628
20
-239.99999999999994
30
-2.8310687127941492e-14
40
3.0000000000000071
210
0
220
-0
230
1
0
CIRCLE
5
110
100
AcDbEntity
8
0
100
AcDbCircle
10
-244.9999999999971
20
-119.99999999999997
30
-2.8310687127941492e-14
40
3.0000000000000071
210
0
220
-0
230
1
0
CIRCLE
5
111
100
AcDbEntity
8
0
100
AcDbCircle
10
-244.99999999999801
20
-5.8807154423266852e-15
30
-2.8310687127941492e-14
40
3.0000000000000071
210
0
220
-0
230
1
0
CIRCLE
5
112
100
AcDbEntity
8
0
100
AcDbCircle
10
-3.4772351843800933e-14
20
239.99999999999994
30
-2.8310687127941492e-14
40
3.0000000000000004
210
0
220
-0
230
1
0
CIRCLE
5
113
100
AcDbEntity
8
0
100
AcDbCircle
10
122.49999999980469
20
239.99999999999994
30
-2.8310687127941492e-14
40
3.0000000000000071
210
0
220
-0
230
1
0
CIRCLE
5
114
100
AcDbEntity
8
0
100
AcDbCircle
10
244.99999999980463
20
239.99999999999994
30
-2.8310687127941492e-14
40
3.0000000000000071
210
0
220
-0
230
1
0
CIRCLE
5
115
100
AcDbEntity
8
0
100
AcDbCircle
10
244.99999999980372
20
119.99999999999997
30
-2.8310687127941492e-14
40
3.0000000000000071
210
0
220
-0
230
1
0
CIRCLE
5
116
100
AcDbEntity
8
0
100
AcDbCircle
10
122.49999999980474
20
110.00000000033295
30
-2.8310687127941492e-14
40
3.0000000000000071
210
0
220
-0
230
1
0
CIRCLE
5
117
100
AcDbEntity
8
0
100
AcDbCircle
10
-9.7597888963843516e-11
20
110.00000000033218
30
-2.8310687127941492e-14
40
3.0000000000000004
210
0
220
-0
230
1
0
CIRCLE
5
118
100
AcDbEntity
8
0
100
AcDbCircle
10
-122.49999999999993
20
239.99999999999994
30
-2.8310687127941492e-14
40
3.0000000000000071
210
0
220
-0
230
1
0
CIRCLE
5
119
100
AcDbEntity
8
0
100
AcDbCircle
10
-244.99999999999889
20
119.99999999999993
30
-2.8310687127941492e-14
40
3.0000000000000071
210
0
220
-0
230
1
0
CIRCLE
5
120
100
AcDbEntity
8
0
100
AcDbCircle
10
-244.99999999999983
20
239.99999999999989
30
-2.8310687127941492e-14
40
3.0000000000000071
210
0
220
-0
230
1
0
CIRCLE
5
121
100
AcDbEntity
8
0
100
AcDbCircle
10
-122.49999999999993
20
110.00000000033293
30
-2.8310687127941492e-14
40
3.0000000000000071
210
0
220
-0
230
1
0
ENDSEC
0
SECTION
2
OBJECTS
0
DICTIONARY
5
C
100
AcDbDictionary
3
ACAD_GROUP
350
D
3
ACAD_MLINESTYLE
350
17
0
DICTIONARY
5
D
100
AcDbDictionary
0
DICTIONARY
5
1A
330
C
100
AcDbDictionary
0
DICTIONARY
5
17
100
AcDbDictionary
0
ENDSEC
0
EOF
