0
SECTION
2
HEADER
9
$INSUNITS
70
4
9
$ACADVER
1
AC1014
9
$HANDSEED
5
FFFF
0
ENDSEC
0
SECTION
2
TABLES
0
TABLE
2
VPORT
5
8
100
AcDbSymbolTable
0
ENDTAB
0
TABLE
2
LTYPE
5
5
100
AcDbSymbolTable
0
LTYPE
5
14
100
AcDbSymbolTableRecord
100
AcDbLinetypeTableRecord
2
BYBLOCK
70
0
0
LTYPE
5
15
100
AcDbSymbolTableRecord
100
AcDbLinetypeTableRecord
2
BYLAYER
70
0
0
LTYPE
5
16
100
AcDbSymbolTableRecord
100
AcDbLinetypeTableRecord
2
DASHED
70
0
3
Dashed __ __ __ __ __ __ __ __ __ __ __ __ __ _
72
65
73
2
40
0.75
49
0.5
74
0
49
-0.25
74
0
0
ENDTAB
0
TABLE
2
LAYER
5
2
100
AcDbSymbolTable
70
2
0
LAYER
5
50
100
AcDbSymbolTableRecord
100
AcDbLayerTableRecord
2
0
70
0
62
7
6
CONTINUOUS
0
ENDTAB
0
TABLE
2
STYLE
5
3
100
AcDbSymbolTable
70
1
0
STYLE
5
11
100
AcDbSymbolTableRecord
100
AcDbTextStyleTableRecord
2
STANDARD
70
0
0
ENDTAB
0
TABLE
2
VIEW
5
6
100
AcDbSymbolTable
70
0
0
ENDTAB
0
TABLE
2
UCS
5
7
100
AcDbSymbolTable
70
0
0
ENDTAB
0
TABLE
2
APPID
5
9
100
AcDbSymbolTable
70
2
0
APPID
5
12
100
AcDbSymbolTableRecord
100
AcDbRegAppTableRecord
2
ACAD
70
0
0
ENDTAB
0
TABLE
2
DIMSTYLE
5
A
100
AcDbSymbolTable
70
1
0
ENDTAB
0
TABLE
2
BLOCK_RECORD
5
1
100
AcDbSymbolTable
70
1
0
BLOCK_RECORD
5
1F
100
AcDbSymbolTableRecord
100
AcDbBlockTableRecord
2
*MODEL_SPACE
0
BLOCK_RECORD
5
1B
100
AcDbSymbolTableRecord
100
AcDbBlockTableRecord
2
*PAPER_SPACE
0
ENDTAB
0
ENDSEC
0
SECTION
2
BLOCKS
0
BLOCK
5
20
100
AcDbEntity
100
AcDbBlockBegin
2
*MODEL_SPACE
0
ENDBLK
5
21
100
AcDbEntity
100
AcDbBlockEnd
0
BLOCK
5
1C
100
AcDbEntity
100
AcDbBlockBegin
2
*PAPER_SPACE
0
ENDBLK
5
1D
100
AcDbEntity
100
AcDbBlockEnd
0
ENDSEC
0
SECTION
2
ENTITIES
0
LWPOLYLINE
5
100
100
AcDbEntity
8
0
100
AcDbPolyline
90
8
70
1
43
0.0
10
207.00000000019966
20
120.00000000039216
10
-207.00000000024727
20
120.00000000039219
42
-0.41421356237301532
10
-210.00000000024727
20
123.00000000039137
10
-210.00000000031721
20
227.00000000034987
42
-0.4142135623763139
10
-207.00000000024494
20
230.00000000039074
10
207.00000000019736
20
230.00000000039074
42
-0.4142135623763139
10
210.00000000026961
20
227.00000000034987
10
210.00000000019966
20
123.00000000039137
42
-0.41421356237301532
0
LWPOLYLINE
5
101
100
AcDbEntity
8
0
100
AcDbPolyline
90
8
70
1
43
0.0
10
-207.00000000024028
20
100.00000000039215
10
207.00000000019264
20
100.00000000039215
42
-0.41421356237317486
10
210.00000000019267
20
97.000000000391324
10
210.00000000010499
20
-226.99999999960772
42
-0.41421356237301532
10
207.00000000010502
20
-229.99999999960696
10
-207.00000000015262
20
-229.99999999960696
42
-0.41421356237301177
10
-210.0000000001526
20
-226.99999999960778
10
-210.00000000024028
20
97.000000000391282
42
-0.4142135623731783
0
LWPOLYLINE
5
102
100
AcDbEntity
8
0
100
AcDbPolyline
90
8
70
1
43
0.0
10
-227.00000000002373
20
-249.99999999978672
10
226.99999999997613
20
-249.99999999978672
42
0.41421356235685874
10
229.99999999997624
20
-246.99999999995367
10
229.99999999979391
20
247.00000000003274
42
0.41421356239417345
10
226.99999999996521
20
250.00000000003286
10
-227.00000000001282
20
250.00000000003286
42
0.41421356239417689
10
-229.99999999984152
20
247.00000000003271
10
-230.00000000002385
20
-246.9999999999537
42
0.4142135623568553
0
CIRCLE
5
103
100
AcDbEntity
8
0
100
AcDbCircle
10
-2.3810139254575205e-11
20
110.00000000039086
30
7.4940054162198066e-15
40
2.9999999999999973
210
0
220
0
230
1
0
CIRCLE
5
104
100
AcDbEntity
8
0
100
AcDbCircle
10
-2.4736230563183395e-11
20
-239.99999999995345
30
7.4940054162198066e-15
40
2.9999999999999973
210
0
220
0
230
1
0
CIRCLE
5
105
100
AcDbEntity
8
0
100
AcDbCircle
10
219.99999999997343
20
239.99999999997388
30
7.4940054162198066e-15
40
3.0000000000000071
210
0
220
0
230
1
0
CIRCLE
5
106
100
AcDbEntity
8
0
100
AcDbCircle
10
219.999999999983
20
120.000000000033
30
7.4940054162198066e-15
40
3.0000000000000071
210
0
220
0
230
1
0
CIRCLE
5
107
100
AcDbEntity
8
0
100
AcDbCircle
10
109.99999999993661
20
240.00000000003899
30
7.4940054162198066e-15
40
2.9999999999999893
210
0
220
0
230
1
0
CIRCLE
5
108
100
AcDbEntity
8
0
100
AcDbCircle
10
219.99999999998298
20
8.4845038761007974e-11
30
7.4940054162198066e-15
40
3.0000000000000071
210
0
220
0
230
1
0
CIRCLE
5
109
100
AcDbEntity
8
0
100
AcDbCircle
10
219.9999999999846
20
-119.9999999998264
30
7.4940054162198066e-15
40
3.0000000000000071
210
0
220
0
230
1
0
CIRCLE
5
110
100
AcDbEntity
8
0
100
AcDbCircle
10
220.0000000000631
20
-239.99999999977086
30
7.4940054162198066e-15
40
3.0000000000000071
210
0
220
0
230
1
0
CIRCLE
5
111
100
AcDbEntity
8
0
100
AcDbCircle
10
110.00000000008855
20
-239.99999999991735
30
7.4940054162198066e-15
40
2.9999999999999893
210
0
220
0
230
1
0
CIRCLE
5
112
100
AcDbEntity
8
0
100
AcDbCircle
10
109.99999999998379
20
110.00000000039151
30
7.4940054162198066e-15
40
2.9999999999999893
210
0
220
0
230
1
0
CIRCLE
5
113
100
AcDbEntity
8
0
100
AcDbCircle
10
-110.00000000003139
20
110.00000000039151
30
7.4940054162198066e-15
40
2.9999999999999893
210
0
220
0
230
1
0
CIRCLE
5
114
100
AcDbEntity
8
0
100
AcDbCircle
10
-5.5929832218842885e-11
20
240.00000000021299
30
7.4940054162198066e-15
40
2.9999999999999973
210
0
220
0
230
1
0
CIRCLE
5
115
100
AcDbEntity
8
0
100
AcDbCircle
10
-110.00000000013615
20
-239.99999999991735
30
7.4940054162198066e-15
40
2.9999999999999893
210
0
220
0
230
1
0
CIRCLE
5
116
100
AcDbEntity
8
0
100
AcDbCircle
10
-220.0000000001107
20
-239.99999999977086
30
7.4940054162198066e-15
40
3.0000000000000071
210
0
220
0
230
1
0
CIRCLE
5
117
100
AcDbEntity
8
0
100
AcDbCircle
10
-220.00000000003217
20
-119.9999999998264
30
7.4940054162198066e-15
40
3.0000000000000071
210
0
220
0
230
1
0
CIRCLE
5
118
100
AcDbEntity
8
0
100
AcDbCircle
10
-220.00000000003058
20
8.4837771021507394e-11
30
7.4940054162198066e-15
40
3.0000000000000071
210
0
220
0
230
1
0
CIRCLE
5
119
100
AcDbEntity
8
0
100
AcDbCircle
10
-109.99999999998421
20
240.00000000003899
30
7.4940054162198066e-15
40
2.9999999999999893
210
0
220
0
230
1
0
CIRCLE
5
120
100
AcDbEntity
8
0
100
AcDbCircle
10
-220.00000000003064
20
120.000000000033
30
7.4940054162198066e-15
40
3.0000000000000071
210
0
220
0
230
1
0
CIRCLE
5
121
100
AcDbEntity
8
0
100
AcDbCircle
10
-220.00000000002103
20
239.99999999997388
30
7.4940054162198066e-15
40
3.0000000000000071
210
0
220
0
230
1
0
ENDSEC
0
SECTION
2
OBJECTS
0
DICTIONARY
5
C
100
AcDbDictionary
3
ACAD_GROUP
350
D
3
ACAD_MLINESTYLE
350
17
0
DICTIONARY
5
D
100
AcDbDictionary
0
DICTIONARY
5
1A
330
C
100
AcDbDictionary
0
DICTIONARY
5
17
100
AcDbDictionary
0
ENDSEC
0
EOF
