<?xml version="1.0" encoding="UTF-8" standalone="no"?>
<!-- Created with Inkscape (http://www.inkscape.org/) -->

<svg
   width="100mm"
   height="150mm"
   viewBox="0 0 100 150"
   version="1.1"
   id="svg1"
   xml:space="preserve"
   xmlns="http://www.w3.org/2000/svg"
   xmlns:svg="http://www.w3.org/2000/svg"><defs
     id="defs1" /><path
     d="m 50.580375,17.910535 c -0.576022,5.8e-5 -1.141892,0.151729 -1.640727,0.439766 L 15.471407,37.672636 c -2.188127,1.26294 -2.188414,4.42107 -5.17e-4,5.684407 L 38.931474,56.90247 c 1.015341,0.586296 1.640787,1.669744 1.640727,2.842204 v 65.179486 c -1.39e-4,1.17275 0.625543,2.25646 1.641243,2.84272 l 6.726204,3.88297 c 1.0153,0.58609 2.266154,0.58609 3.281454,0 l 6.726721,-3.88297 c 1.015501,-0.58639 1.640972,-1.67008 1.640727,-2.84272 V 59.744674 c 4.6e-5,-1.172566 0.625703,-2.25604 1.641243,-2.842204 L 85.68986,43.357043 c 2.188012,-1.263138 2.188012,-4.421268 0,-5.684407 L 52.221619,18.350301 C 51.722632,18.062177 51.156572,17.910502 50.580375,17.910535 Z M 13.830164,54.289709 c -1.812411,2.04e-4 -3.281535,1.46956 -3.281454,3.281971 v 50.01762 c -6e-5,1.17246 0.625381,2.2559 1.640727,2.8422 l 13.451892,7.76645 c 2.187893,1.26315 4.922728,-0.31586 4.922697,-2.8422 V 65.338647 C 30.563902,64.166368 29.938485,63.083166 28.923299,62.49696 L 15.471407,54.729476 C 14.972419,54.44135 14.406363,54.289677 13.830164,54.289709 Z m 73.500423,0 c -0.288012,3e-5 -0.573738,0.03821 -0.849561,0.112138 -0.275823,0.07393 -0.541748,0.18361 -0.791166,0.327629 L 72.237968,62.49696 c -0.253846,0.146519 -0.483269,0.324296 -0.684713,0.526583 -0.201444,0.202287 -0.375085,0.429072 -0.516764,0.674378 -0.141679,0.245306 -0.251528,0.508872 -0.326078,0.784448 -0.07455,0.275576 -0.113631,0.563183 -0.113689,0.856278 v 50.017103 c -3.2e-5,0.31584 0.04291,0.61664 0.121957,0.89917 0.07905,0.28253 0.194214,0.54677 0.339514,0.78858 0.1453,0.24181 0.32062,0.46157 0.519348,0.65526 0.198729,0.19369 0.421092,0.36154 0.660425,0.49971 0.239333,0.13817 0.495632,0.2467 0.762744,0.32194 0.267112,0.0752 0.544757,0.11705 0.826823,0.12196 0.282066,0.005 0.568465,-0.0274 0.852661,-0.10025 0.284196,-0.0728 0.566242,-0.1862 0.839742,-0.34417 l 13.451375,-7.76645 c 0.253886,-0.14654 0.483247,-0.32426 0.684713,-0.52658 0.201466,-0.20233 0.375084,-0.42902 0.516765,-0.67438 0.14168,-0.24535 0.251549,-0.50934 0.326078,-0.78496 0.07453,-0.27563 0.113676,-0.56314 0.113688,-0.85628 V 57.57168 c 1e-5,-0.226576 -0.02295,-0.447807 -0.06666,-0.661459 -0.262273,-1.281911 -1.271938,-2.291576 -2.553849,-2.553849 -0.213652,-0.04371 -0.434882,-0.06667 -0.661458,-0.06666 z"
     style="fill:#000000;fill-opacity:1;stroke:#000000;stroke-width:1;stroke-dasharray:none"
     id="path11" /></svg>
