0
SECTION
2
HEADER
9
$INSUNITS
70
4
9
$ACADVER
1
AC1014
9
$HANDSEED
5
FFFF
0
ENDSEC
0
SECTION
2
TABLES
0
TABLE
2
VPORT
5
8
100
AcDbSymbolTable
0
ENDTAB
0
TABLE
2
LTYPE
5
5
100
AcDbSymbolTable
0
LTYPE
5
14
100
AcDbSymbolTableRecord
100
AcDbLinetypeTableRecord
2
BYBLOCK
70
0
0
LTYPE
5
15
100
AcDbSymbolTableRecord
100
AcDbLinetypeTableRecord
2
BYLAYER
70
0
0
LTYPE
5
16
100
AcDbSymbolTableRecord
100
AcDbLinetypeTableRecord
2
DASHED
70
0
3
Dashed __ __ __ __ __ __ __ __ __ __ __ __ __ _
72
65
73
2
40
0.75
49
0.5
74
0
49
-0.25
74
0
0
ENDTAB
0
TABLE
2
LAYER
5
2
100
AcDbSymbolTable
70
3
0
LAYER
5
50
100
AcDbSymbolTableRecord
100
AcDbLayerTableRecord
2
1
70
0
62
7
6
DASHED
0
LAYER
5
51
100
AcDbSymbolTableRecord
100
AcDbLayerTableRecord
2
0
70
0
62
7
6
CONTINUOUS
0
ENDTAB
0
TABLE
2
STYLE
5
3
100
AcDbSymbolTable
70
1
0
STYLE
5
11
100
AcDbSymbolTableRecord
100
AcDbTextStyleTableRecord
2
STANDARD
70
0
0
ENDTAB
0
TABLE
2
VIEW
5
6
100
AcDbSymbolTable
70
0
0
ENDTAB
0
TABLE
2
UCS
5
7
100
AcDbSymbolTable
70
0
0
ENDTAB
0
TABLE
2
APPID
5
9
100
AcDbSymbolTable
70
2
0
APPID
5
12
100
AcDbSymbolTableRecord
100
AcDbRegAppTableRecord
2
ACAD
70
0
0
ENDTAB
0
TABLE
2
DIMSTYLE
5
A
100
AcDbSymbolTable
70
1
0
ENDTAB
0
TABLE
2
BLOCK_RECORD
5
1
100
AcDbSymbolTable
70
1
0
BLOCK_RECORD
5
1F
100
AcDbSymbolTableRecord
100
AcDbBlockTableRecord
2
*MODEL_SPACE
0
BLOCK_RECORD
5
1B
100
AcDbSymbolTableRecord
100
AcDbBlockTableRecord
2
*PAPER_SPACE
0
ENDTAB
0
ENDSEC
0
SECTION
2
BLOCKS
0
BLOCK
5
20
100
AcDbEntity
100
AcDbBlockBegin
2
*MODEL_SPACE
0
ENDBLK
5
21
100
AcDbEntity
100
AcDbBlockEnd
0
BLOCK
5
1C
100
AcDbEntity
100
AcDbBlockBegin
2
*PAPER_SPACE
0
ENDBLK
5
1D
100
AcDbEntity
100
AcDbBlockEnd
0
ENDSEC
0
SECTION
2
ENTITIES
0
LWPOLYLINE
5
100
100
AcDbEntity
8
0
100
AcDbPolyline
90
16
70
1
43
0.0
10
-109.60132193405678
20
-186.29761156347072
42
0.57734714520932229
10
-109.60131297796426
20
-186.9211481671727
10
-105.92999698280998
20
-189.0407360737849
42
0.26794391993229044
10
-105.57000311758976
20
-189.04073613182578
10
-101.8986841873849
20
-186.92114810912787
42
0.5773472526939909
10
-101.89867513076035
20
-186.29761144738501
10
-104.47214823595689
20
-184.81175069262267
42
-0.26794408817817361
10
-104.65214229698825
20
-184.49998497620084
10
-104.65214229698817
20
-177.3500779548188
42
0.26795494487067034
10
-104.83214899020373
20
-177.03830494522236
10
-105.57000649209948
20
-176.61232383841067
42
0.26793803319250031
10
-105.92999350778371
20
-176.61232407056099
10
-106.66784827567105
20
-177.03830486782402
42
0.26795459927686471
10
-106.84785456677125
20
-177.35007764527015
10
-106.84785456677128
20
-184.49998497620089
42
-0.26794408817816562
10
-107.02784862780261
20
-184.81175069262275
0
LWPOLYLINE
5
101
100
AcDbEntity
8
0
100
AcDbPolyline
90
8
70
1
43
0.0
10
-109.96131049531671
20
-178.93986430219405
42
0.26794889676414285
10
-110.14131015129693
20
-179.25163324893629
10
-110.14131015129693
20
-184.73834407493553
42
0.57736320368042937
10
-109.6012980537749
20
-185.05010623547722
10
-108.12569696906579
20
-184.19809120612689
42
0.26793879515736341
10
-107.9457090665879
20
-183.88632904558506
10
-107.94570906658782
20
-178.39969239447026
42
0.57735063700439704
10
-108.48570941060754
20
-178.087923447728
0
LWPOLYLINE
5
102
100
AcDbEntity
8
0
100
AcDbPolyline
90
8
70
1
43
0.0
10
-101.35868671246193
20
-179.25163309415214
42
0.2679487239544539
10
-101.53868616737159
20
-178.93986426349844
10
-103.01428398193158
20
-178.08792402817076
42
0.57735085198265912
10
-103.55428452702182
20
-178.39969285882447
10
-103.55428452702191
20
-183.8863292003727
42
0.26793862234098387
10
-103.37429682561896
20
-184.19809124481333
10
-101.89869901105905
20
-185.0501056549715
42
0.57736341867040508
10
-101.35868671246199
20
-184.73834361053079
0
ENDSEC
0
SECTION
2
OBJECTS
0
DICTIONARY
5
C
100
AcDbDictionary
3
ACAD_GROUP
350
D
3
ACAD_MLINESTYLE
350
17
0
DICTIONARY
5
D
100
AcDbDictionary
0
DICTIONARY
5
1A
330
C
100
AcDbDictionary
0
DICTIONARY
5
17
100
AcDbDictionary
0
ENDSEC
0
EOF
